PathFileType	4	(X/Y/Z)	OpenSim_Sub05_CSStiffKnee_Gyro.trc
DataRate	CameraRate	NumFrames	NumMarkers	Units	OrigDataRate	OrigDataStartFrame	OrigNumFrames
100	100	30	8	m	100	5625	11248
Frame#	Time	torso_imu_offset_imu	pelvis_imu_offset_imu	tibia_r_imu_offset_imu	femur_r_imu_offset_imu	tibia_l_imu_offset_imu	femur_l_imu_offset_imu	toes_r_imu_offset_imu	toes_l_imu_offset_imu
				X1	Y1	Z1	X2	Y2	Z2	X3	Y3	Z3	X4	Y4	Z4	X5	Y5	Z5	X6	Y6	Z6	X7	Y7	Z7	X8		Y8	Z8	

5625	56.24000000	0.64381114	0.04228468	0.28029034	-0.24740994	-0.29570134	0.06090164	-0.45833874	-0.12118485	-0.58147624	-0.18125504	-0.16162049	-0.59821065	-0.20432163	0.22012395	-2.05857835	-0.59579515	0.16677380	-0.87979197	-0.05954737	-0.58836684	-0.39159007	0.20671360	1.59816949	-0.66060508
5626	56.25000000	0.59633895	0.07557799	0.23423811	-0.28911571	-0.32263386	0.06168091	-0.47567643	-0.13919374	-0.61431893	-0.12533418	-0.12274072	-0.59944379	-0.17062392	0.19404925	-1.98137157	-0.46466840	0.11049005	-0.79844231	-0.02556695	-0.61900923	-0.43153071	0.15395862	1.53709677	-0.62840988
5627	56.26000000	0.55105744	0.09386085	0.19730485	-0.33524333	-0.37437974	0.06627947	-0.51082878	-0.13570043	-0.64071280	0.00119675	-0.09369412	-0.59139044	-0.21805668	0.14717728	-1.84904664	-0.31862302	0.05409411	-0.71795792	0.00710330	-0.66267601	-0.45780920	0.08150092	1.41372006	-0.58196176
5628	56.27000000	0.48794791	0.09662750	0.16135900	-0.37216970	-0.41449170	0.07245747	-0.49780696	-0.13557252	-0.67846476	0.05428793	-0.11276768	-0.54536506	-0.32675086	0.10969523	-1.66604139	-0.20859240	-0.00045964	-0.63201251	-0.00981339	-0.72342297	-0.45737073	0.05724494	1.28886264	-0.56235232
5629	56.28000000	0.39326843	0.09301578	0.12761265	-0.39469461	-0.42305473	0.07264228	-0.49446325	-0.12742397	-0.74209503	0.02990566	-0.07791491	-0.50198067	-0.34964925	0.07134166	-1.41088517	-0.16876399	-0.03359157	-0.56286930	-0.03478987	-0.79661147	-0.43708877	0.07598295	1.16019853	-0.57473832
5630	56.29000000	0.28870301	0.07598563	0.09965038	-0.40966872	-0.42307501	0.08168479	-0.48781877	-0.10267747	-0.80323261	-0.02677146	-0.00996320	-0.47172287	-0.37931653	0.00808250	-1.10368541	-0.15356176	-0.00989458	-0.54029291	-0.04173213	-0.88506688	-0.40868207	0.08635715	0.94124613	-0.60371465
5631	56.30000000	0.19370828	0.07116057	0.07754281	-0.41019862	-0.41533012	0.09703331	-0.43170953	-0.08450803	-0.84733113	-0.11877609	0.04524182	-0.45044560	-0.41123864	-0.05475804	-0.84000380	-0.12852336	0.04298527	-0.55327466	-0.07216462	-1.00070125	-0.37508245	0.07739483	0.66119659	-0.64026219
5632	56.31000000	0.12157138	0.07590433	0.04988888	-0.40148929	-0.39166590	0.11579398	-0.40181260	-0.06792454	-0.91975085	-0.22949706	0.08034542	-0.42159110	-0.34562677	-0.08925748	-0.61860814	-0.09439905	0.06181037	-0.56148343	-0.10917013	-1.13762948	-0.34328499	0.05692289	0.39290913	-0.65099395
5633	56.32000000	0.07713097	0.08601612	0.02327341	-0.37657546	-0.37268629	0.14202889	-0.40516431	-0.04259306	-1.02436172	-0.34014356	0.14217287	-0.37771198	-0.30636203	-0.11366342	-0.41515652	-0.05227456	0.02161598	-0.54746775	-0.11382159	-1.28327970	-0.31121957	0.02337110	0.19363852	-0.60192539
5634	56.33000000	0.05242014	0.11892982	-0.00466054	-0.35435676	-0.38067820	0.17993808	-0.40484902	-0.00945234	-1.10491026	-0.42814347	0.23029098	-0.32850847	-0.32208560	-0.14770371	-0.25010203	-0.02311684	-0.08179279	-0.51484831	-0.12744649	-1.45231697	-0.28393798	0.07522447	0.09795292	-0.52076185
5635	56.34000000	0.02469237	0.14906872	-0.06389052	-0.36738914	-0.43769728	0.21809928	-0.39193609	-0.00834845	-1.17279872	-0.50228920	0.30061647	-0.27100276	-0.26170030	-0.19351700	-0.14394486	-0.01461572	-0.21201355	-0.45331189	-0.16466207	-1.65643678	-0.26290137	-0.05577897	-0.00071769	-0.28973719
5636	56.35000000	-0.02430573	0.16601491	-0.11502963	-0.39659857	-0.51120230	0.26311155	-0.43262236	-0.01998836	-1.30855197	-0.54325572	0.33676153	-0.19309285	-0.14241470	-0.27434943	-0.09186617	-0.01701877	-0.30699975	-0.33704139	-0.20353398	-1.86965640	-0.25168554	-0.53448172	-0.36051853	0.12601287
5637	56.36000000	-0.07798145	0.18547102	-0.14641719	-0.41481246	-0.52583565	0.31608302	-0.52679346	-0.02848886	-1.48832364	-0.53523318	0.36638892	-0.06274772	-0.01961079	-0.35912590	0.02494027	0.03725692	-0.33608209	-0.17949031	-0.24129262	-2.09778751	-0.25656648	-0.44945190	-0.83480483	0.39095982
5638	56.37000000	-0.14087683	0.20914137	-0.15289534	-0.42506658	-0.48386009	0.35999012	-0.60603367	-0.03426543	-1.65026110	-0.52627955	0.38359516	0.10370322	0.19816322	-0.36030970	0.35460271	0.19281784	-0.30729127	-0.03495414	-0.23226792	-2.34149470	-0.25984993	-0.60786144	-1.34704453	0.51821608
5639	56.38000000	-0.20837197	0.23208724	-0.15511631	-0.45076286	-0.41092188	0.39033251	-0.58475859	0.00849435	-1.78342057	-0.61473761	0.42958468	0.30642035	0.14856692	-0.38300142	0.77793139	0.38382673	-0.27633660	0.05751835	-0.21442944	-2.62472881	-0.23758093	-0.60468458	-2.14072617	0.63554685
5640	56.39000000	-0.27411040	0.23914728	-0.15861316	-0.48069824	-0.29806741	0.40231472	-0.47701446	0.01813766	-1.95649847	-0.76817027	0.55438511	0.53153600	0.04069723	-0.42997485	1.47816697	0.52758485	-0.27981647	0.08454073	-0.24218745	-2.96817007	-0.16498724	0.21566224	-2.26876879	0.54061227
5641	56.40000000	-0.34200892	0.22489338	-0.14206056	-0.52292131	-0.16162437	0.37493197	-0.45979020	-0.03159474	-2.22802328	-0.82984570	0.68839699	0.76523915	-0.03992072	-0.54959216	2.08229298	0.55751449	-0.32140600	0.06562786	-0.31678327	-3.40036305	-0.10584073	-0.25328377	-0.87815819	0.34217482
5642	56.41000000	-0.39399079	0.19364081	-0.13586698	-0.60021414	-0.04791035	0.28579878	-0.53203275	-0.05164520	-2.44476704	-0.78516591	0.78978994	1.02694916	-0.09302722	-0.62001388	1.55540861	0.43838181	-0.37531988	0.06322347	-0.42089783	-3.97582647	-0.13649921	-0.56793751	-0.31870795	0.45764009
5643	56.42000000	-0.43204617	0.14373451	-0.14801215	-0.65367176	0.02439502	0.14345666	-0.54074918	-0.11668709	-2.54160017	-0.61821876	0.85932327	1.30331307	0.13627586	-0.41008956	0.71111234	0.21893077	-0.30660083	0.21672138	-0.45066640	-4.58181206	-0.22994742	-0.19278655	-0.72491812	0.46425382
5644	56.43000000	-0.48215091	0.07851702	-0.16206043	-0.65369270	0.03373788	-0.05858217	-0.53263940	-0.23723720	-2.64402066	-0.33479454	0.90097611	1.58459768	-0.10834573	-0.24719927	0.61250402	-0.00282251	-0.20337978	0.49943750	-0.62300595	-5.22025190	-0.36196497	-0.35788255	-0.44993944	0.13770063
5645	56.44000000	-0.54750394	0.02799503	-0.18757040	-0.59654696	-0.03021966	-0.31291435	-0.43760309	-0.22059749	-2.72069583	-0.20525045	0.97288290	1.90402383	-0.94975679	-0.32647838	0.89890718	-0.18602474	-0.23213568	0.68177637	-0.58052592	-5.70160970	-0.59233558	-0.28276249	-0.28415412	-0.00632047
5646	56.45000000	-0.60564944	0.00791849	-0.22771373	-0.51220598	-0.10106110	-0.56299443	-0.05741625	-0.19449960	-2.68365888	-0.22313067	1.19202028	2.20840887	-1.10250170	-0.36475061	1.01907475	-0.29725278	-0.20802650	0.71549214	-0.25166499	-5.99030356	-0.80109145	-0.05018599	-0.30244094	-0.01051452
5647	56.46000000	-0.64402892	0.00436326	-0.28739968	-0.46108337	-0.10920207	-0.72776807	0.80345220	-0.36393338	-2.61874413	-0.18156100	1.37286885	2.40747494	-0.38545151	-0.29184757	0.87775571	-0.47038362	-0.08371134	0.67189208	-0.51231263	-5.89858255	-0.93115025	0.08060371	-0.22509100	-0.04278483
5648	56.47000000	-0.66475064	0.00017559	-0.37519305	-0.40500368	-0.05407501	-0.77489318	1.54288718	-0.50735376	-2.63124060	-0.19395009	1.43409295	2.55882110	0.00722363	-0.30174022	0.73591816	-0.83096610	0.00190772	0.58187268	-0.57812198	-5.48913736	-1.26270231	0.10305228	-0.14424793	-0.05621253
5649	56.48000000	-0.62557614	-0.00823186	-0.46798912	-0.32623592	0.03565549	-0.73486711	1.69477518	-0.51706081	-2.65391410	-0.33148763	1.55722672	2.61921051	-0.17840114	-0.36736455	0.68465942	-1.12584633	-0.02987416	0.50365996	0.23799742	-4.75312291	-1.59519738	0.06155141	-0.11863328	-0.02456481
5650	56.49000000	-0.51629530	-0.01789739	-0.54475046	-0.25513239	0.13640130	-0.65736590	1.70481709	-0.52515986	-2.54757863	-0.41237212	1.53114991	2.55068084	-0.36052519	-0.39377971	0.67632093	-1.12607794	-0.16230819	0.50418248	0.51427540	-4.24820215	-1.58895630	0.01603621	-0.10349419	-0.01292811
5651	56.50000000	-0.38801817	-0.02510283	-0.60557878	-0.14997141	0.23398955	-0.58052990	1.49514210	-0.56408285	-2.31411400	-0.37818699	1.25658400	2.43699799	-0.06567960	-0.36180173	0.63741962	-0.85304518	-0.26328568	0.57744513	0.26520459	-3.50555413	-1.35714319	0.03973124	-0.10029970	-0.01978048
5652	56.51000000	-0.30036151	-0.02603130	-0.63688417	-0.02190162	0.32325260	-0.50758760	0.93839091	-0.51464359	-2.03300201	-0.23030128	0.95950783	2.32330082	0.31394384	-0.31087451	0.60696084	-0.45843036	-0.30885520	0.63890188	-0.45257237	-2.06265858	-0.95300482	0.15899732	-0.11860038	-0.02333483
5653	56.52000000	-0.27186278	-0.00696322	-0.66754590	0.06955975	0.37100841	-0.41830681	0.26109264	-0.34000928	-1.74475385	0.14226597	0.75203245	2.19031684	0.32335536	-0.28014736	0.59360014	-0.10087788	-0.31431490	0.64451034	-0.56793061	-0.34340168	-0.47334253	0.21252711	-0.15192928	-0.02845133
5654	56.53000000	-0.24612049	0.02357618	-0.67953122	0.12054173	0.37185977	-0.29021253	-0.34184685	-0.25630754	-1.27653785	0.53785551	0.60303814	2.05127469	0.15647123	-0.25465892	0.58527936	0.15989264	-0.28443120	0.64486912	-0.32194343	0.42094742	-0.32498904	0.20193312	-0.17073238	-0.03341387
